<svg width="152" height="221" viewBox="0 0 152 221" fill="none" xmlns="http://www.w3.org/2000/svg">
<g style="mix-blend-mode:soft-light">
<path d="M2.23517e-07 220.7V185.3L90.6 104.9C97.4 98.9 102.2 93.25 105 87.95C107.8 82.65 109.2 77.7 109.2 73.1C109.2 66.5 107.85 60.65 105.15 55.55C102.45 50.35 98.65 46.3 93.75 43.4C88.85 40.4 83.1 38.9 76.5 38.9C69.6 38.9 63.5 40.5 58.2 43.7C53 46.8 48.95 50.95 46.05 56.15C43.15 61.25 41.8 66.8 42 72.8H2.23517e-07C2.23517e-07 58 3.25 45.2 9.75 34.4C16.25 23.6 25.3 15.25 36.9 9.35C48.5 3.45 62 0.499996 77.4 0.499996C91.5 0.499996 104.1 3.59999 115.2 9.79998C126.4 15.9 135.2 24.45 141.6 35.45C148 46.45 151.2 59.2 151.2 73.7C151.2 84.4 149.7 93.3 146.7 100.4C143.7 107.4 139.25 113.9 133.35 119.9C127.45 125.8 120.2 132.5 111.6 140L53.1 191.3L49.8 182.3H151.2V220.7H2.23517e-07Z" fill="#CCCCCC"/>
</g>
</svg>
