<svg width="148" height="220" viewBox="0 0 148 220" fill="none" xmlns="http://www.w3.org/2000/svg">
<g style="mix-blend-mode:soft-light">
<path d="M72 219.9C61.2 219.9 50.9 217.75 41.1 213.45C31.3 209.05 22.75 202.9 15.45 195C8.25 187.1 3.1 177.8 8.49366e-07 167.1L39.6 156.6C41.7 164.5 45.8 170.65 51.9 175.05C58.1 179.35 64.8 181.5 72 181.5C78.2 181.5 83.85 180 88.95 177C94.15 174 98.25 169.95 101.25 164.85C104.35 159.75 105.9 154.1 105.9 147.9C105.9 138.6 102.7 130.65 96.3 124.05C90 117.35 81.9 114 72 114C69 114 66.1 114.45 63.3 115.35C60.5 116.15 57.8 117.3 55.2 118.8L36.9 86.7L105.6 29.7L108.6 38.4H8.4V-8.58307e-06H143.4V38.4L90 90L89.7 78.6C102.1 80.5 112.55 84.85 121.05 91.65C129.65 98.35 136.15 106.65 140.55 116.55C145.05 126.35 147.3 136.8 147.3 147.9C147.3 161.5 143.85 173.75 136.95 184.65C130.05 195.45 120.9 204.05 109.5 210.45C98.1 216.75 85.6 219.9 72 219.9Z" fill="#606060"/>
</g>
</svg>
