<svg width="147" height="221" viewBox="0 0 147 221" fill="none" xmlns="http://www.w3.org/2000/svg">
<g style="mix-blend-mode:soft-light">
<path d="M70.2 220.5C59.3 220.5 49.05 218.25 39.45 213.75C29.95 209.25 21.75 203 14.85 195C7.95 187 3 177.7 2.23517e-07 167.1L39.3 156.6C40.6 161.7 42.9 166.1 46.2 169.8C49.6 173.5 53.5 176.4 57.9 178.5C62.4 180.5 67 181.5 71.7 181.5C77.9 181.5 83.55 180 88.65 177C93.85 174 97.95 169.95 100.95 164.85C104.05 159.75 105.6 154.1 105.6 147.9C105.6 141.7 104.05 136.05 100.95 130.95C97.95 125.85 93.85 121.8 88.65 118.8C83.55 115.8 77.9 114.3 71.7 114.3C64.1 114.3 57.9 115.6 53.1 118.2C48.3 120.7 44.7 123.1 42.3 125.4L7.8 114.9L14.4 -8.58307e-06H132.3V38.1H36.9L51.3 24.6L46.8 98.7L39.9 90.3C45.3 85.9 51.45 82.7 58.35 80.7C65.25 78.7 71.7 77.7 77.7 77.7C91.3 77.7 103.25 80.75 113.55 86.85C123.95 92.85 132.05 101.15 137.85 111.75C143.75 122.25 146.7 134.3 146.7 147.9C146.7 161.5 143.15 173.8 136.05 184.8C128.95 195.7 119.6 204.4 108 210.9C96.4 217.3 83.8 220.5 70.2 220.5Z" fill="#262626"/>
</g>
</svg>
