<svg width="151" height="226" viewBox="0 0 151 226" fill="none" xmlns="http://www.w3.org/2000/svg">
<g style="mix-blend-mode:soft-light">
<path d="M75.3 225.5C61 225.5 48.15 222.15 36.75 215.45C25.45 208.75 16.5 199.45 9.9 187.55C3.3 175.55 8.9407e-08 161.7 8.9407e-08 146V83.3C8.9407e-08 66.3 3.3 51.65 9.9 39.35C16.5 26.95 25.8 17.45 37.8 10.85C49.8 4.14999 63.9 0.799992 80.1 0.799992C90.6 0.799992 100.6 2.34999 110.1 5.44999C119.6 8.55 128.3 13.8 136.2 21.2L107.1 50.3C103.5 46.7 99.35 43.9 94.65 41.9C89.95 39.9 85.1 38.9 80.1 38.9C72.3 38.9 65.5 40.75 59.7 44.45C54 48.05 49.55 52.8 46.35 58.7C43.25 64.5 41.7 70.7 41.7 77.3V109.4L34.8 101.9C41 95.6 48.15 90.8 56.25 87.5C64.45 84.1 72.9 82.4 81.6 82.4C95.2 82.4 107.15 85.45 117.45 91.55C127.85 97.65 135.95 106 141.75 116.6C147.65 127.2 150.6 139.3 150.6 152.9C150.6 166.5 147.15 178.8 140.25 189.8C133.35 200.7 124.2 209.4 112.8 215.9C101.4 222.3 88.9 225.5 75.3 225.5ZM75.3 186.5C81.5 186.5 87.15 185 92.25 182C97.45 179 101.55 174.95 104.55 169.85C107.65 164.75 109.2 159.1 109.2 152.9C109.2 146.7 107.7 141.05 104.7 135.95C101.7 130.75 97.65 126.65 92.55 123.65C87.45 120.55 81.8 119 75.6 119C69.4 119 63.7 120.55 58.5 123.65C53.4 126.65 49.3 130.75 46.2 135.95C43.2 141.05 41.7 146.7 41.7 152.9C41.7 158.9 43.2 164.45 46.2 169.55C49.2 174.65 53.25 178.75 58.35 181.85C63.45 184.95 69.1 186.5 75.3 186.5Z" fill="black"/>
</g>
</svg>
