<svg width="1168" height="171" viewBox="0 0 1168 171" fill="none" xmlns="http://www.w3.org/2000/svg">
<path d="M0 30.0405V4.62162H132.344V30.0405H79.4065V166.378H52.9377V30.0405H0Z" fill="url(#paint0_linear_0_37)"/>
<path d="M150.694 166.378V4.62162H220.894C239.921 4.62162 255.035 9.55135 266.237 19.4108C277.438 29.2703 283.038 41.6716 283.038 56.6149C283.038 68.477 279.356 78.9527 271.991 88.0419C264.779 96.977 254.652 103.062 241.609 106.297L281.888 166.378H250.816L212.839 108.608H177.163V166.378H150.694ZM177.163 83.1892H220.894C243.911 83.1892 255.419 74.3311 255.419 56.6149C255.419 38.8986 243.911 30.0405 220.894 30.0405H177.163V83.1892Z" fill="url(#paint1_linear_0_37)"/>
<path d="M296.947 166.378L338.377 4.62162H403.973L446.554 166.378H418.934L407.886 124.784H333.773L323.416 166.378H296.947ZM340.678 99.3649H401.442L383.259 30.0405H357.941L340.678 99.3649Z" fill="url(#paint2_linear_0_37)"/>
<path d="M466.046 166.378V4.62162H578.826V30.0405H492.514V76.2568H560.413V101.676H492.514V166.378H466.046Z" fill="url(#paint3_linear_0_37)"/>
<path d="M599.559 166.378V4.62162H712.339V30.0405H626.027V76.2568H693.926V101.676H626.027V166.378H599.559Z" fill="url(#paint4_linear_0_37)"/>
<path d="M733.071 166.378V4.62162H759.54V166.378H733.071Z" fill="url(#paint5_linear_0_37)"/>
<path d="M809.689 146.736C793.117 130.561 784.831 110.149 784.831 85.5C784.831 60.8513 793.117 40.4392 809.689 24.2635C826.261 8.08784 846.745 0 871.143 0C899.069 0 920.858 9.85946 936.509 29.5784C943.414 38.0514 948.478 47.8338 951.7 58.9257H925.231C922.469 52.7635 918.633 47.2176 913.723 42.2878C902.522 31.0419 888.328 25.4189 871.143 25.4189C853.804 25.4189 839.687 30.9649 828.793 42.0567C817.898 53.1486 812.451 67.6297 812.451 85.5C812.451 103.37 817.898 117.851 828.793 128.943C839.687 140.035 853.804 145.581 871.143 145.581C888.789 145.581 903.289 139.419 914.644 127.095C919.707 121.857 923.62 115.695 926.382 108.608H952.851C948.861 120.624 943.261 131.023 936.049 139.804C920.091 160.601 898.456 171 871.143 171C846.745 171 826.261 162.912 809.689 146.736Z" fill="url(#paint6_linear_0_37)"/>
<path d="M966.589 57.7703V27.7297L996.51 4.62162H1020.68V166.378H994.208V36.973L966.589 57.7703Z" fill="url(#paint7_linear_0_37)"/>
<path d="M1043.71 120.162H1071.33C1072.41 124.938 1074.48 129.174 1077.55 132.872C1084.45 141.345 1094.27 145.581 1107.01 145.581C1117.59 145.581 1125.96 142.962 1132.09 137.724C1138.39 132.332 1141.53 125.708 1141.53 117.851C1141.53 108.916 1138.69 101.907 1133.02 96.823C1127.49 91.5851 1119.59 88.9662 1109.31 88.9662H1070.18V65.8581L1118.51 31.1959V30.0405H1051.77V4.62162H1157.64V29.8095L1116.21 60.0811L1104.7 64.7027V65.8581L1108.39 65.396C1113.45 64.9338 1116.44 64.7027 1117.36 64.7027C1131.79 64.7027 1143.83 69.7094 1153.5 79.723C1163.17 89.7365 1168 102.446 1168 117.851C1168 132.641 1162.32 145.196 1150.97 155.518C1139.61 165.839 1124.96 171 1107.01 171C1083.22 171 1065.65 162.527 1054.3 145.581C1049.39 138.341 1045.86 129.868 1043.71 120.162Z" fill="url(#paint8_linear_0_37)"/>
<defs>
<linearGradient id="paint0_linear_0_37" x1="655.83" y1="-151.466" x2="961.521" y2="309.12" gradientUnits="userSpaceOnUse">
<stop stop-color="#A8FF78"/>
<stop offset="1" stop-color="#6100FF"/>
</linearGradient>
<linearGradient id="paint1_linear_0_37" x1="655.83" y1="-151.466" x2="961.521" y2="309.12" gradientUnits="userSpaceOnUse">
<stop stop-color="#A8FF78"/>
<stop offset="1" stop-color="#6100FF"/>
</linearGradient>
<linearGradient id="paint2_linear_0_37" x1="655.83" y1="-151.466" x2="961.521" y2="309.12" gradientUnits="userSpaceOnUse">
<stop stop-color="#A8FF78"/>
<stop offset="1" stop-color="#6100FF"/>
</linearGradient>
<linearGradient id="paint3_linear_0_37" x1="655.83" y1="-151.466" x2="961.521" y2="309.12" gradientUnits="userSpaceOnUse">
<stop stop-color="#A8FF78"/>
<stop offset="1" stop-color="#6100FF"/>
</linearGradient>
<linearGradient id="paint4_linear_0_37" x1="655.83" y1="-151.466" x2="961.521" y2="309.12" gradientUnits="userSpaceOnUse">
<stop stop-color="#A8FF78"/>
<stop offset="1" stop-color="#6100FF"/>
</linearGradient>
<linearGradient id="paint5_linear_0_37" x1="655.83" y1="-151.466" x2="961.521" y2="309.12" gradientUnits="userSpaceOnUse">
<stop stop-color="#A8FF78"/>
<stop offset="1" stop-color="#6100FF"/>
</linearGradient>
<linearGradient id="paint6_linear_0_37" x1="655.83" y1="-151.466" x2="961.521" y2="309.12" gradientUnits="userSpaceOnUse">
<stop stop-color="#A8FF78"/>
<stop offset="1" stop-color="#6100FF"/>
</linearGradient>
<linearGradient id="paint7_linear_0_37" x1="655.83" y1="-151.466" x2="961.521" y2="309.12" gradientUnits="userSpaceOnUse">
<stop stop-color="#A8FF78"/>
<stop offset="1" stop-color="#6100FF"/>
</linearGradient>
<linearGradient id="paint8_linear_0_37" x1="655.83" y1="-151.466" x2="961.521" y2="309.12" gradientUnits="userSpaceOnUse">
<stop stop-color="#A8FF78"/>
<stop offset="1" stop-color="#6100FF"/>
</linearGradient>
</defs>
</svg>
