<svg width="483" height="161" viewBox="0 0 483 161" fill="none" xmlns="http://www.w3.org/2000/svg">
<path d="M372.344 68V22.432H385.016V68H372.344ZM363.832 32.928V22.432H384.376V32.928H363.832ZM405.264 68.768C402.021 68.768 398.992 68.2347 396.176 67.168C393.402 66.0587 391.056 64.5013 389.136 62.496L397.135 54.624C397.861 55.648 398.97 56.5013 400.464 57.184C401.957 57.824 403.493 58.144 405.072 58.144C406.352 58.144 407.482 57.9307 408.464 57.504C409.488 57.0773 410.277 56.4587 410.832 55.648C411.429 54.8373 411.728 53.856 411.728 52.704C411.728 51.552 411.429 50.5707 410.832 49.76C410.234 48.9493 409.381 48.3307 408.272 47.904C407.162 47.4773 405.84 47.264 404.304 47.264C403.45 47.264 402.533 47.328 401.552 47.456C400.613 47.5413 399.888 47.6907 399.376 47.904L404.944 40.992C406.437 40.6507 407.76 40.3733 408.912 40.16C410.106 39.904 411.152 39.776 412.048 39.776C414.352 39.776 416.421 40.3093 418.256 41.376C420.09 42.4427 421.541 43.9787 422.608 45.984C423.674 47.9467 424.208 50.2933 424.208 53.024C424.208 56.1387 423.418 58.8907 421.84 61.28C420.304 63.6267 418.106 65.4613 415.248 66.784C412.432 68.1067 409.104 68.768 405.264 68.768ZM399.376 47.904V41.056L409.424 29.216L423.056 29.28L412.688 40.992L399.376 47.904ZM392.528 32.928V22.432H423.056V29.28L413.648 32.928H392.528Z" fill="#A8FF78"/>
<path d="M15.744 128V40.064H35.328V128H15.744ZM1.664 82.432V65.792H49.408V82.432H1.664ZM58.037 128V65.792H77.621V128H58.037ZM77.621 93.824L69.429 87.424C71.0503 80.1707 73.781 74.5387 77.621 70.528C81.461 66.5173 86.7943 64.512 93.621 64.512C96.6077 64.512 99.2103 64.9813 101.429 65.92C103.733 66.7733 105.738 68.1387 107.445 70.016L95.797 84.736C94.9437 83.7973 93.877 83.072 92.597 82.56C91.317 82.048 89.8663 81.792 88.245 81.792C85.0023 81.792 82.3997 82.816 80.437 84.864C78.5597 86.8267 77.621 89.8133 77.621 93.824ZM136.896 129.28C131.179 129.28 126.059 127.872 121.536 125.056C117.099 122.24 113.557 118.4 110.912 113.536C108.352 108.672 107.072 103.125 107.072 96.896C107.072 90.6667 108.352 85.12 110.912 80.256C113.557 75.392 117.099 71.552 121.536 68.736C126.059 65.92 131.179 64.512 136.896 64.512C141.077 64.512 144.832 65.3227 148.16 66.944C151.573 68.5653 154.347 70.8267 156.48 73.728C158.613 76.544 159.808 79.7867 160.064 83.456V110.336C159.808 114.005 158.613 117.291 156.48 120.192C154.432 123.008 151.701 125.227 148.288 126.848C144.875 128.469 141.077 129.28 136.896 129.28ZM140.864 111.616C145.045 111.616 148.416 110.251 150.976 107.52C153.536 104.704 154.816 101.163 154.816 96.896C154.816 93.9947 154.219 91.4347 153.024 89.216C151.915 86.9973 150.293 85.2907 148.16 84.096C146.112 82.816 143.723 82.176 140.992 82.176C138.261 82.176 135.829 82.816 133.696 84.096C131.648 85.2907 129.984 86.9973 128.704 89.216C127.509 91.4347 126.912 93.9947 126.912 96.896C126.912 99.712 127.509 102.229 128.704 104.448C129.899 106.667 131.563 108.416 133.696 109.696C135.829 110.976 138.219 111.616 140.864 111.616ZM154.048 128V111.232L156.992 96.128L154.048 81.024V65.792H173.248V128H154.048ZM194.973 128V63.104C194.973 57.728 196.082 52.9493 198.301 48.768C200.605 44.5013 203.89 41.1307 208.157 38.656C212.424 36.1813 217.458 34.944 223.261 34.944C229.064 34.944 233.928 36.1387 237.853 38.528C241.778 40.9173 244.68 43.9893 246.557 47.744C248.52 51.4987 249.501 55.552 249.501 59.904L234.397 61.824C234.397 58.6667 233.544 56.192 231.837 54.4C230.13 52.608 227.698 51.712 224.541 51.712C221.298 51.712 218.824 52.608 217.117 54.4C215.41 56.1067 214.557 58.5387 214.557 61.696V128H194.973ZM181.277 82.432V65.792H271.901V82.432H181.277ZM234.397 128V60.544C234.397 55.424 235.506 50.8587 237.725 46.848C240.029 42.752 243.229 39.552 247.325 37.248C251.421 34.8587 256.285 33.664 261.917 33.664C266.184 33.664 269.896 34.3893 273.053 35.84C276.296 37.2053 279.112 39.1253 281.501 41.6L269.213 53.888C268.36 53.0347 267.378 52.3947 266.269 51.968C265.245 51.456 264.008 51.2 262.557 51.2C259.912 51.2 257.821 51.968 256.285 53.504C254.749 55.04 253.981 57.1307 253.981 59.776V128H234.397ZM282.287 128V65.792H301.871V128H282.287ZM292.143 57.216C289.071 57.216 286.511 56.192 284.463 54.144C282.5 52.0107 281.519 49.4507 281.519 46.464C281.519 43.392 282.5 40.832 284.463 38.784C286.511 36.736 289.071 35.712 292.143 35.712C295.215 35.712 297.732 36.736 299.695 38.784C301.658 40.832 302.639 43.392 302.639 46.464C302.639 49.4507 301.658 52.0107 299.695 54.144C297.732 56.192 295.215 57.216 292.143 57.216ZM345.742 129.408C339.342 129.408 333.539 128 328.334 125.184C323.129 122.368 319.033 118.485 316.046 113.536C313.059 108.587 311.566 103.04 311.566 96.896C311.566 90.6667 313.059 85.12 316.046 80.256C319.118 75.3067 323.257 71.424 328.462 68.608C333.667 65.792 339.513 64.384 345.998 64.384C350.862 64.384 355.299 65.2373 359.31 66.944C363.406 68.5653 367.033 71.04 370.19 74.368L357.646 86.912C356.195 85.2907 354.489 84.096 352.526 83.328C350.649 82.56 348.473 82.176 345.998 82.176C343.182 82.176 340.665 82.816 338.446 84.096C336.313 85.2907 334.606 86.9973 333.326 89.216C332.131 91.3493 331.534 93.8667 331.534 96.768C331.534 99.6693 332.131 102.229 333.326 104.448C334.606 106.667 336.355 108.416 338.574 109.696C340.793 110.976 343.267 111.616 345.998 111.616C348.558 111.616 350.819 111.189 352.782 110.336C354.83 109.397 356.579 108.117 358.03 106.496L370.446 119.04C367.203 122.453 363.534 125.056 359.438 126.848C355.342 128.555 350.777 129.408 345.742 129.408Z" fill="white"/>
</svg>
